<?xml version="1.0" encoding="UTF-8"?>
<svg version="1.1" xmlns="http://www.w3.org/2000/svg" width="200" height="200">
<path d="M0 0 C2.17300022 -0.00968252 4.34504502 -0.04069388 6.51782227 -0.07226562 C7.90518645 -0.07879831 9.29255739 -0.08404774 10.67993164 -0.08789062 C12.56965698 -0.10190918 12.56965698 -0.10190918 14.49755859 -0.11621094 C18.14115062 0.26785118 20.01844205 0.98287664 22.87915039 3.24023438 C23.9333022 6.40268979 24.19190711 9.10971655 24.44165039 12.42773438 C24.52543945 13.51441406 24.60922852 14.60109375 24.69555664 15.72070312 C24.75614258 16.55214844 24.81672852 17.38359375 24.87915039 18.24023438 C26.45640386 18.94157037 28.04126372 19.62581737 29.62915039 20.30273438 C30.51086914 20.68558594 31.39258789 21.0684375 32.30102539 21.46289062 C35.13035058 22.31597504 36.20406837 22.42733621 38.87915039 21.24023438 C40.89696158 19.46788888 42.72827401 17.57702499 44.58618164 15.63867188 C47.98523821 13.56565271 50.07190411 14.3461332 53.87915039 15.24023438 C56.58569336 17.17041016 56.58569336 17.17041016 59.12133789 19.68554688 C60.04172852 20.59820312 60.96211914 21.51085937 61.91040039 22.45117188 C62.61036133 23.16998535 62.61036133 23.16998535 63.32446289 23.90332031 C64.75091708 25.36192818 66.20660083 26.78570646 67.66821289 28.20898438 C69.03719727 29.58957031 69.03719727 29.58957031 70.43383789 30.99804688 C71.26383301 31.83480957 72.09382812 32.67157227 72.94897461 33.53369141 C75.30485262 36.83716517 75.71562189 39.21689997 75.87915039 43.24023438 C74.48071289 45.53320313 74.48071289 45.53320313 72.50415039 47.42773438 C69.03928789 50.74882383 69.03928789 50.74882383 67.87915039 55.24023438 C68.61789387 57.87150884 68.61789387 57.87150884 69.81665039 60.49023438 C70.19692383 61.38226563 70.57719727 62.27429688 70.96899414 63.19335938 C71.41952148 64.2065625 71.41952148 64.2065625 71.87915039 65.24023438 C72.68739258 65.27761719 73.49563477 65.315 74.32836914 65.35351562 C75.39700195 65.41925781 76.46563477 65.485 77.56665039 65.55273438 C78.62239258 65.61074219 79.67813477 65.66875 80.76586914 65.72851562 C84.16414332 66.28707763 86.14530322 67.16645121 88.87915039 69.24023438 C90.61545633 74.44915219 90.10461332 80.0377129 90.11938477 85.49145508 C90.1291005 87.66656594 90.16014095 89.84073537 90.19165039 92.015625 C90.19818006 93.40168711 90.20343067 94.78775596 90.20727539 96.17382812 C90.21662109 97.43251709 90.2259668 98.69120605 90.2355957 99.98803711 C89.85525021 103.45829897 89.35708052 104.8308937 86.87915039 107.24023438 C83.71669498 108.29438618 81.00966821 108.5529911 77.69165039 108.80273438 C76.06163086 108.92841797 76.06163086 108.92841797 74.39868164 109.05664062 C73.56723633 109.11722656 72.73579102 109.1778125 71.87915039 109.24023438 C71.1778144 110.81748785 70.49356739 112.40234771 69.81665039 113.99023438 C69.43379883 114.87195313 69.05094727 115.75367188 68.65649414 116.66210938 C67.80340973 119.49143456 67.69204855 120.56515236 68.87915039 123.24023438 C70.65149589 125.25804556 72.54235978 127.089358 74.48071289 128.94726562 C76.55373206 132.34632219 75.77325156 134.4329881 74.87915039 138.24023438 C72.94897461 140.94677734 72.94897461 140.94677734 70.43383789 143.48242188 C69.52118164 144.4028125 68.60852539 145.32320312 67.66821289 146.27148438 C67.18900391 146.738125 66.70979492 147.20476562 66.21606445 147.68554688 C64.75745659 149.11200106 63.33367831 150.56768481 61.91040039 152.02929688 C60.99000977 152.94195312 60.06961914 153.85460937 59.12133789 154.79492188 C58.2845752 155.62491699 57.4478125 156.45491211 56.58569336 157.31005859 C53.28221959 159.6659366 50.90248479 160.07670587 46.87915039 160.24023438 C44.58618164 158.84179687 44.58618164 158.84179687 42.69165039 156.86523438 C39.37056093 153.40037187 39.37056093 153.40037187 34.87915039 152.24023438 C32.24787593 152.97897785 32.24787593 152.97897785 29.62915039 154.17773438 C28.29110352 154.74814453 28.29110352 154.74814453 26.92602539 155.33007812 C26.25055664 155.63042969 25.57508789 155.93078125 24.87915039 156.24023438 C24.84176758 157.04847656 24.80438477 157.85671875 24.76586914 158.68945312 C24.70012695 159.75808594 24.63438477 160.82671875 24.56665039 161.92773438 C24.50864258 162.98347656 24.45063477 164.03921875 24.39086914 165.12695312 C23.83230714 168.5252273 22.95293356 170.50638721 20.87915039 173.24023438 C15.80716091 174.93089754 10.41831231 174.46555457 5.11010742 174.48046875 C3.01839333 174.49016833 0.92766502 174.521202 -1.16381836 174.55273438 C-2.50105214 174.55926577 -3.83829291 174.56451571 -5.17553711 174.56835938 C-6.99287354 174.58237793 -6.99287354 174.58237793 -8.84692383 174.59667969 C-12.42752848 174.20684503 -14.29917336 173.45019141 -17.12084961 171.24023438 C-18.17500141 168.07777896 -18.43360633 165.3707522 -18.68334961 162.05273438 C-18.8090332 160.42271484 -18.8090332 160.42271484 -18.93725586 158.75976562 C-18.9978418 157.92832031 -19.05842773 157.096875 -19.12084961 156.24023438 C-20.69810308 155.53889838 -22.28296294 154.85465138 -23.87084961 154.17773438 C-24.75256836 153.79488281 -25.63428711 153.41203125 -26.54272461 153.01757812 C-29.3720498 152.16449371 -30.44576759 152.05313254 -33.12084961 153.24023438 C-35.1386608 155.01257987 -36.96997323 156.90344376 -38.82788086 158.84179688 C-42.22693742 160.91481604 -44.31360333 160.13433555 -48.12084961 159.24023438 C-50.82739258 157.31005859 -50.82739258 157.31005859 -53.36303711 154.79492188 C-54.28342773 153.88226563 -55.20381836 152.96960938 -56.15209961 152.02929688 C-56.61874023 151.55008789 -57.08538086 151.07087891 -57.56616211 150.57714844 C-58.99261629 149.11854057 -60.44830005 147.69476229 -61.90991211 146.27148438 C-62.82256836 145.35109375 -63.73522461 144.43070313 -64.67553711 143.48242188 C-65.50553223 142.64565918 -66.33552734 141.80889648 -67.19067383 140.94677734 C-69.54655184 137.64330358 -69.95732111 135.26356878 -70.12084961 131.24023438 C-68.72241211 128.94726562 -68.72241211 128.94726562 -66.74584961 127.05273438 C-63.28098711 123.73164492 -63.28098711 123.73164492 -62.12084961 119.24023438 C-62.85959308 116.60895991 -62.85959308 116.60895991 -64.05834961 113.99023438 C-64.43862305 113.09820312 -64.81889648 112.20617187 -65.21069336 111.28710938 C-65.51104492 110.61164063 -65.81139648 109.93617187 -66.12084961 109.24023438 C-66.9290918 109.20285156 -67.73733398 109.16546875 -68.57006836 109.12695312 C-69.63870117 109.06121094 -70.70733398 108.99546875 -71.80834961 108.92773438 C-72.8640918 108.86972656 -73.91983398 108.81171875 -75.00756836 108.75195312 C-78.40584254 108.19339112 -80.38700244 107.31401754 -83.12084961 105.24023438 C-84.81151277 100.16824489 -84.34616981 94.77939629 -84.36108398 89.47119141 C-84.37078356 87.37947732 -84.40181723 85.28874901 -84.43334961 83.19726562 C-84.43988101 81.86003185 -84.44513094 80.52279108 -84.44897461 79.18554688 C-84.45832031 77.97398926 -84.46766602 76.76243164 -84.47729492 75.51416016 C-84.08746026 71.9335555 -83.33080665 70.06191063 -81.12084961 67.24023438 C-77.95839419 66.18608257 -75.25136743 65.92747765 -71.93334961 65.67773438 C-70.84666992 65.59394531 -69.75999023 65.51015625 -68.64038086 65.42382812 C-67.80893555 65.36324219 -66.97749023 65.30265625 -66.12084961 65.24023438 C-65.41951362 63.6629809 -64.73526661 62.07812104 -64.05834961 60.49023438 C-63.67549805 59.60851562 -63.29264648 58.72679687 -62.89819336 57.81835938 C-62.04510895 54.98903419 -61.93374777 53.91531639 -63.12084961 51.24023438 C-64.89319511 49.22242319 -66.784059 47.39111075 -68.72241211 45.53320312 C-70.79543128 42.13414656 -70.01495078 40.04748065 -69.12084961 36.24023438 C-67.19067383 33.53369141 -67.19067383 33.53369141 -64.67553711 30.99804688 C-63.76288086 30.07765625 -62.85022461 29.15726563 -61.90991211 28.20898438 C-61.43070313 27.74234375 -60.95149414 27.27570312 -60.45776367 26.79492188 C-58.99915581 25.36846769 -57.57537753 23.91278394 -56.15209961 22.45117188 C-55.23170898 21.53851563 -54.31131836 20.62585938 -53.36303711 19.68554688 C-52.52627441 18.85555176 -51.68951172 18.02555664 -50.82739258 17.17041016 C-47.52391881 14.81453215 -45.14418401 14.40376288 -41.12084961 14.24023438 C-38.82788086 15.63867188 -38.82788086 15.63867188 -36.93334961 17.61523438 C-33.61226015 21.08009688 -33.61226015 21.08009688 -29.12084961 22.24023438 C-26.48957515 21.5014909 -26.48957515 21.5014909 -23.87084961 20.30273438 C-22.97881836 19.92246094 -22.08678711 19.5421875 -21.16772461 19.15039062 C-20.49225586 18.85003906 -19.81678711 18.5496875 -19.12084961 18.24023438 C-19.0834668 17.43199219 -19.04608398 16.62375 -19.00756836 15.79101562 C-18.94182617 14.72238281 -18.87608398 13.65375 -18.80834961 12.55273438 C-18.7503418 11.49699219 -18.69233398 10.44125 -18.63256836 9.35351562 C-18.07728063 5.97516206 -17.12819711 3.99104392 -15.12084961 1.24023438 C-10.7465618 -0.94690953 -4.86124826 0.01312816 0 0 Z M-12.49584961 45.67773438 C-15.73950444 50.79272852 -16.92180675 55.17144372 -16.12084961 61.24023438 C-14.28312289 69.32390569 -11.12258319 74.66826049 -4.12084961 79.24023438 C1.25665971 81.03273748 5.35372401 80.87144529 10.50415039 78.74023438 C15.75981335 75.33668148 19.02926706 70.44220484 21.25415039 64.67773438 C22.47844698 57.94410311 22.26636708 52.25633566 18.87915039 46.24023438 C15.27208743 42.13564549 11.05897656 39.59844703 5.62524414 38.98632812 C-1.84001541 38.6330105 -7.23540165 40.27885357 -12.49584961 45.67773438 Z M-31.12084961 50.24023438 C-39.44458698 56.97006459 -45.8902035 68.52044045 -47.12084961 79.24023438 C-47.351958 84.56939865 -47.23730234 89.90928724 -47.12084961 95.24023438 C-44.64584961 94.74523437 -44.64584961 94.74523437 -42.12084961 94.24023438 C-42.09506836 93.22445312 -42.06928711 92.20867187 -42.04272461 91.16210938 C-41.54377505 77.43597358 -38.71327245 67.24491514 -30.12084961 56.24023438 C-29.11939022 54.90799683 -28.11890704 53.57502243 -27.12084961 52.24023438 C-28.44084961 51.58023438 -29.76084961 50.92023437 -31.12084961 50.24023438 Z M34.87915039 50.24023438 C33.88915039 51.72523437 33.88915039 51.72523437 32.87915039 53.24023438 C33.32645508 53.70171875 33.77375977 54.16320312 34.23461914 54.63867188 C42.81925599 63.90056153 46.95158318 74.09531848 47.50415039 86.67773438 C47.54282227 87.40927734 47.58149414 88.14082031 47.62133789 88.89453125 C47.71449023 90.67606969 47.79785326 92.45811559 47.87915039 94.24023438 C49.52915039 94.57023437 51.17915039 94.90023437 52.87915039 95.24023438 C53.62259871 79.1528388 51.01024936 66.21189518 40.38696289 53.44726562 C38.98758815 51.91312362 38.98758815 51.91312362 36.87915039 50.24023438 C36.21915039 50.24023438 35.55915039 50.24023438 34.87915039 50.24023438 Z M12.87915039 88.24023438 C8.90628003 91.96612004 6.19074642 95.32245695 5.30151367 100.79541016 C5.19180541 104.81922591 5.26547849 108.78402073 5.44165039 112.80273438 C5.47683287 114.20695287 5.50875963 115.61125689 5.53735352 117.015625 C5.61935986 120.42474572 5.74489762 123.8327712 5.87915039 127.24023438 C11.81915039 127.24023438 17.75915039 127.24023438 23.87915039 127.24023438 C23.87915039 122.29023438 23.87915039 117.34023437 23.87915039 112.24023438 C26.18915039 112.24023438 28.49915039 112.24023438 30.87915039 112.24023438 C30.87915039 117.19023437 30.87915039 122.14023438 30.87915039 127.24023438 C34.50915039 127.24023438 38.13915039 127.24023438 41.87915039 127.24023438 C41.96019493 123.67727626 42.01967482 120.1161673 42.06665039 116.55273438 C42.09178711 115.54533203 42.11692383 114.53792969 42.14282227 113.5 C42.3930046 106.26206758 42.3930046 106.26206758 38.87915039 100.24023438 C36.46396357 98.63494392 33.94470891 97.39591109 31.31665039 96.17773438 C30.60444336 95.83484375 29.89223633 95.49195312 29.15844727 95.13867188 C23.82454624 92.59963845 18.41542705 90.30184187 12.87915039 88.24023438 Z M-18.87084961 92.92773438 C-19.87374023 93.36279297 -20.87663086 93.79785156 -21.90991211 94.24609375 C-28.46070029 97.17830995 -33.62064046 99.4986948 -36.42553711 106.49414062 C-37.22531459 110.80305413 -37.3431358 114.81108126 -37.24584961 119.17773438 C-37.23682617 119.95697266 -37.22780273 120.73621094 -37.21850586 121.5390625 C-37.19518652 123.43958884 -37.15932547 125.33995446 -37.12084961 127.24023438 C-33.16084961 127.24023438 -29.20084961 127.24023438 -25.12084961 127.24023438 C-25.12084961 122.29023438 -25.12084961 117.34023437 -25.12084961 112.24023438 C-22.81084961 112.24023438 -20.50084961 112.24023438 -18.12084961 112.24023438 C-18.12084961 117.19023437 -18.12084961 122.14023438 -18.12084961 127.24023438 C-12.18084961 127.24023438 -6.24084961 127.24023438 -0.12084961 127.24023438 C0.04107942 123.1303214 0.17996067 119.02865248 0.26367188 114.91723633 C0.29859679 113.52329778 0.34615872 112.12961037 0.40722656 110.73657227 C0.77022741 102.23503146 0.46602335 96.20742778 -5.50732422 89.66186523 C-9.10727222 86.49005449 -15.0501861 91.22294464 -18.87084961 92.92773438 Z " fill="#000000" transform="translate(97.120849609375,12.759765625)"/>
</svg>
